<?xml version="1.0" encoding="UTF-8" standalone="no"?>
<svg
   width="100%"
   height="100%"
   viewBox="0 0 2000 2000"
   version="1.1"
   xml:space="preserve"
   style="fill-rule:evenodd;clip-rule:evenodd;stroke-linecap:round;stroke-linejoin:round;stroke-miterlimit:1.5;"
   id="svg11"
   sodipodi:docname="blahaj_no_circle.svg"
   inkscape:version="1.4.4 (dcaf3e7d9e, 2026-05-05)"
   xmlns:inkscape="http://www.inkscape.org/namespaces/inkscape"
   xmlns:sodipodi="http://sodipodi.sourceforge.net/DTD/sodipodi-0.dtd"
   xmlns="http://www.w3.org/2000/svg"
   xmlns:svg="http://www.w3.org/2000/svg"
   xmlns:serif="http://www.serif.com/"><defs
   id="defs11" /><sodipodi:namedview
   id="namedview11"
   pagecolor="#ffffff"
   bordercolor="#000000"
   borderopacity="0.25"
   inkscape:showpageshadow="2"
   inkscape:pageopacity="0.0"
   inkscape:pagecheckerboard="0"
   inkscape:deskcolor="#d1d1d1"
   inkscape:zoom="0.4"
   inkscape:cx="1000"
   inkscape:cy="1000"
   inkscape:window-width="1920"
   inkscape:window-height="1011"
   inkscape:window-x="0"
   inkscape:window-y="0"
   inkscape:window-maximized="1"
   inkscape:current-layer="svg11" />
    
    <g
   id="hai"
   transform="matrix(0.991374,-0.131063,0.131063,0.991374,-79.516,268.117)">
        <g
   id="körper"
   transform="matrix(0.928595,0.371096,-0.371096,0.928595,424.414,-511.576)">
            <path
   d="M1169.69,941.148C1181.91,941.148 1295.56,471.384 1208.01,395.142C915.507,140.426 495.822,640.353 455.826,962.5C433.865,1139.38 463.547,1303.78 583.139,1471.72C711.095,1651.41 976.468,1823.85 1352.19,1688.88C1382.26,1775.65 1578.6,1956.18 1718.38,1895.34C1388.82,1487.27 1629.48,1382.86 1665.9,1321.49C1560.45,1305.58 1277.45,1466.1 1319.13,1587.08C1233.12,1596.2 1199.43,1511.02 1151.19,1492.64C1121.37,1420.04 1149.89,1406.48 1103.98,1330.01C1115.21,1323.88 1111.24,1145.4 1104.48,1130.44C1092.07,1102.97 1169.69,941.148 1169.69,941.148Z"
   style="fill:rgb(105,182,200);stroke:rgb(105,182,200);stroke-width:12.5px;"
   id="path1" />
        </g>
        <g
   id="bauch"
   transform="matrix(0.928595,0.371096,-0.371096,0.928595,424.414,-511.576)">
            <path
   d="M1169.3,969.604C1193.17,924.591 1223.43,752.947 1235.23,653.929C1248.69,540.91 1242.54,452.873 1170.54,438.966C1024.77,410.813 696.121,851.209 762.309,1071.65C746.777,1165.83 805.499,1278.73 900.354,1367.93C935.678,1401.15 1033.03,1446.41 1066.62,1445.55C1085.54,1445.06 1095.29,1371.49 1107.28,1350.1C1115.93,1334.68 1113.25,1256.6 1113.25,1256.6C1116.05,1227.48 1106.85,1146.76 1118.74,1078.59C1129.49,1016.96 1128.13,1047.21 1169.3,969.604Z"
   style="fill:white;stroke:white;stroke-width:12.5px;"
   id="path2" />
        </g>
        <g
   id="flossen"
   transform="matrix(1.06285,0.406076,-0.422222,1.10511,466.89,-803.976)">
            <path
   d="M701.447,1115.19C864.39,1067.25 928.258,1085.55 1023.52,1205.97C1018.85,1168.03 1030.29,1138.34 1065.17,1105.61C1069.09,1111.37 1132.2,1149.49 1153.11,1215.25C1165.21,1253.32 1158.19,1276.49 1152.35,1285.98C1138.99,1259.06 1016.53,1203.81 849.457,1261.69C746.5,1297.36 667.129,1312.55 567.914,1247.76C515.782,1213.72 375.022,1189.09 271.852,1221.46C254.318,1196.7 277.392,1117.03 326.189,1059.97C375.747,1002.02 466.18,965.509 513.556,986.439C593.764,1021.87 550.542,1159.6 701.447,1115.19Z"
   style="fill:rgb(105,182,200);stroke:rgb(105,182,200);stroke-width:7.18px;"
   id="path3" />
        </g>
        <g
   id="kiemen">
            <path
   d="M741.464,709.316C714.398,708.021 700.039,710.648 662.761,691.655C633.487,676.74 621.759,632.69 636.638,616.085C649.806,601.389 667.43,645.325 690.741,659.666C714.328,674.176 746.535,669.94 757.559,673.011C751.184,687.178 743.532,705.983 741.464,709.316Z"
   style="fill:rgb(33,144,170);"
   id="path4" />
            <path
   d="M801.069,605.694C790.429,619.644 781.263,632.731 773.564,644.96C715.826,638.416 695.125,622.783 667.399,571.878C655.403,549.851 681.324,500.993 721.787,575.801C730.012,591.007 740.476,596.024 801.069,605.694Z"
   style="fill:rgb(33,144,170);"
   id="path5" />
            <path
   d="M827.787,573.323C801.82,569.864 775.474,558.152 755.884,542.881C733.74,525.62 722.368,510.069 724.855,489.728C726.502,476.253 745.886,458.418 756.027,466.556C789.191,493.171 771.087,502.999 808.412,520.546C847.202,538.781 863.548,536.019 863.548,536.019C860.557,538.888 841.202,558.578 827.787,573.323Z"
   style="fill:rgb(33,144,170);"
   id="path6" />
        </g>
        <g
   id="auge"
   transform="matrix(1.21402,0.664043,-0.664043,1.21402,352.179,-968.289)">
            <g
   id="auge1"
   serif:id="auge"
   transform="matrix(0.775843,-0.134536,0.134536,0.775843,77.7073,232.297)">
                <path
   d="M945.92,565.143C960.52,573.418 957.228,600.396 939.947,622.445C924.856,641.701 895.713,666.565 871.465,646.557C849.876,628.743 860.787,603.125 886.182,580.619C903.268,565.477 924.874,553.214 945.92,565.143Z"
   style="fill:rgb(30,100,117);"
   id="path7" />
            </g>
            <g
   transform="matrix(1.04326,0,0,1.01772,-39.1684,-8.60026)"
   id="g8">
                <path
   d="M893.151,537.91C903.069,543.283 914.009,552.346 905.623,575.033C896.257,600.372 882.135,615.815 868.251,622.432C847.426,632.357 827.136,622.425 824.231,596.246C821.408,570.803 857.555,518.625 893.151,537.91ZM882.352,547.288C869.815,537.436 855.147,550.511 848.288,562.193C839.202,577.669 843.513,587.048 847.471,594.263C854.74,607.511 868.191,599.302 880.276,589.415C895.273,577.145 890.693,553.843 882.352,547.288Z"
   style="fill:rgb(9,82,99);"
   id="path8" />
            </g>
            <g
   transform="matrix(0.16945,0.252849,-0.338764,0.227026,803.764,229.51)"
   id="g9">
                <path
   d="M1006.93,286.056C1049.61,306.149 1024.03,352.537 984.513,339.804C983.284,339.408 963.692,333.277 971.635,307.137C974.826,296.636 991.847,278.957 1006.93,286.056Z"
   style="fill:white;"
   id="path9" />
            </g>
        </g>
        <g
   id="maul"
   transform="matrix(1.18224,0.0147423,-0.0146248,1.17282,-230.764,-149.475)">
            <g
   id="maul1"
   serif:id="maul"
   transform="matrix(1.02356,0.409048,-0.418261,1.04662,334.637,-625.048)">
                <path
   d="M1209.57,750.261C1209.57,750.261 1253.95,575.681 1184.9,556.082C1141.54,543.772 1046.68,636.213 976.045,762.309C1022.62,708.223 1201.61,604.818 1209.57,750.261Z"
   style="fill:rgb(248,180,195);stroke:rgb(248,180,195);stroke-width:9.55px;"
   id="path10" />
            </g>
            <g
   id="zähne"
   transform="matrix(1.18727,0.58972,-0.628994,1.26907,289.639,-929.921)">
                <path
   d="M1085.07,583.271C1085.14,585.722 1094.85,610.71 1089.29,616.738C1083.74,622.765 1053.43,618.882 1053.43,618.882C1057.28,625.012 1056.41,651.897 1050.68,657.447C1044.95,662.997 1031.64,659.484 1022.98,655.746C978.213,636.426 1081.02,511.43 1113.03,543.075C1121.55,551.507 1121.69,578.732 1117.15,584.657C1112.6,590.583 1085.07,583.271 1085.07,583.271Z"
   style="fill:white;stroke:white;stroke-width:2.59px;"
   id="path11" />
            </g>
        </g>
    </g>
    <path
   id="Herz"
   d="M1565.61,927.713C1571.24,920.781 1647.56,871.415 1650.9,808.505C1653.55,758.699 1606.79,709.554 1574.33,797.132C1567.79,681.347 1470.05,757.341 1498.58,809.52C1503.52,818.547 1551.03,872.546 1560.48,903.953C1563.4,913.676 1564.62,921.719 1565.61,927.713Z"
   style="fill:rgb(248,180,195);stroke:rgb(248,180,195);stroke-width:8.33px;" />
</svg>
